<svg width="14" height="10" viewBox="0 0 14 10" fill="none" xmlns="http://www.w3.org/2000/svg">
<path d="M11.585 0H1.61366C0.723553 0 0 0.7205 0 1.60685V8.39315C0 9.2795 0.723553 10 1.61366 10H11.5823C12.4724 10 13.196 9.2795 13.196 8.39315V1.60957C13.1987 0.723219 12.4752 0 11.585 0ZM12.4615 8.39315C12.4615 8.87439 12.0683 9.26591 11.585 9.26591H1.61366C1.13038 9.26591 0.737205 8.87439 0.737205 8.39315V1.60957C0.737205 1.12833 1.13038 0.736813 1.61366 0.736813H11.5823C12.0656 0.736813 12.4588 1.12833 12.4588 1.60957V8.39315H12.4615Z" fill="#3D4373"/>
<path d="M8.32231 4.91557L11.5496 2.03357C11.6998 1.89763 11.7135 1.66653 11.5769 1.51427C11.4404 1.36473 11.2083 1.35114 11.0554 1.48708L6.60489 5.46479L5.73663 4.69263C5.7339 4.68991 5.73117 4.68719 5.73117 4.68447C5.71206 4.66544 5.69294 4.64912 5.6711 4.63281L2.13798 1.48436C1.98507 1.34842 1.75299 1.36201 1.61647 1.51427C1.47995 1.66653 1.4936 1.89763 1.64651 2.03357L4.91205 4.94004L1.66016 7.97158C1.51272 8.11025 1.50453 8.34135 1.64378 8.49089C1.7175 8.56702 1.81579 8.6078 1.91408 8.6078C2.00419 8.6078 2.09429 8.57517 2.16528 8.50992L5.46632 5.43488L6.36189 6.23151C6.43288 6.29404 6.52025 6.32395 6.60762 6.32395C6.695 6.32395 6.7851 6.29132 6.85336 6.22879L7.7735 5.40769L11.0554 8.51264C11.1264 8.58061 11.2193 8.61324 11.3094 8.61324C11.4076 8.61324 11.5032 8.57517 11.5769 8.49904C11.7162 8.35222 11.7107 8.1184 11.5633 7.97974L8.32231 4.91557Z" fill="#3D4373"/>
</svg>
