<svg width="25" height="16" viewBox="0 0 25 16" fill="none" xmlns="http://www.w3.org/2000/svg">
<path d="M21.6752 6.85936V3.81274H20.1455V6.85936H17.0859V8.38267H20.1455V11.4293H21.6752V8.38267H24.7347V6.85936H21.6752Z" fill="#232323"/>
<path d="M7.90735 6.85983V9.90644H12.235C11.6033 11.6796 9.90216 12.9531 7.90735 12.9531C5.37713 12.9531 3.31807 10.9027 3.31807 8.38314C3.31807 5.86359 5.37713 3.81322 7.90735 3.81322C9.00419 3.81322 10.0597 4.20471 10.8797 4.91609L12.8898 2.61894C11.513 1.42467 9.7446 0.766602 7.90735 0.766602C3.6898 0.766602 0.258545 4.18338 0.258545 8.38314C0.258545 12.5829 3.6898 15.9997 7.90735 15.9997C12.1249 15.9997 15.5562 12.5829 15.5562 8.38314V6.85983H7.90735Z" fill="#232323"/>
</svg>
