<svg width="21" height="20" viewBox="0 0 21 20" fill="none" xmlns="http://www.w3.org/2000/svg">
<path d="M4.53905 6.25H0.0476074V20H4.53905V6.25Z" fill="#232323"/>
<path d="M16.773 6.41125C16.7253 6.39625 16.6801 6.38 16.6299 6.36625C16.5697 6.3525 16.5094 6.34125 16.4479 6.33125C16.2094 6.28375 15.9483 6.25 15.642 6.25C13.0235 6.25 11.3627 8.14625 10.8154 8.87874V6.25H6.32397V20H10.8154V12.5C10.8154 12.5 14.2097 7.7925 15.642 11.25C15.642 14.3362 15.642 20 15.642 20H20.1322V10.7212C20.1322 8.64374 18.7024 6.9125 16.773 6.41125Z" fill="#232323"/>
<path d="M2.24437 4.37499C3.45761 4.37499 4.44114 3.39562 4.44114 2.18749C4.44114 0.979375 3.45761 0 2.24437 0C1.03113 0 0.0476074 0.979375 0.0476074 2.18749C0.0476074 3.39562 1.03113 4.37499 2.24437 4.37499Z" fill="#232323"/>
</svg>
