<svg width="20" height="16" viewBox="0 0 20 16" fill="none" xmlns="http://www.w3.org/2000/svg">
<path d="M19.1638 2.56996C18.4636 2.8758 17.7176 3.07851 16.9397 3.17694C17.7399 2.7012 18.3506 1.95361 18.6378 1.05251C17.8917 1.49545 17.068 1.80831 16.1902 1.9829C15.4818 1.2318 14.4721 0.766602 13.3707 0.766602C11.2337 0.766602 9.51333 2.4938 9.51333 4.61119C9.51333 4.91586 9.53922 5.2088 9.60276 5.48768C6.39379 5.33184 3.55432 3.80033 1.64683 1.46732C1.31381 2.04266 1.11847 2.7012 1.11847 3.41013C1.11847 4.74126 1.80686 5.92124 2.83298 6.60438C2.21284 6.59266 1.60446 6.41338 1.08905 6.13099C1.08905 6.1427 1.08905 6.15794 1.08905 6.17317C1.08905 8.04098 2.427 9.59241 4.18152 9.9498C3.86733 10.0353 3.5249 10.0764 3.16953 10.0764C2.92241 10.0764 2.67294 10.0623 2.43877 10.0107C2.93889 11.5329 4.35803 12.6519 6.04548 12.6882C4.73224 13.7112 3.0648 14.3275 1.25968 14.3275C0.943135 14.3275 0.639536 14.3135 0.335938 14.2748C2.04574 15.3728 4.07209 15.9997 6.25729 15.9997C13.3601 15.9997 17.2433 10.1408 17.2433 5.06233C17.2433 4.89242 17.2374 4.72837 17.2292 4.5655C17.9953 4.02414 18.6389 3.34802 19.1638 2.56996Z" fill="#FF7800"/>
</svg>
