<svg width="28" height="16" viewBox="0 0 28 16" fill="none" xmlns="http://www.w3.org/2000/svg">
<path d="M26.9224 14.3538C26.8504 14.2336 26.4046 13.2691 24.2596 11.2867C22.014 9.21076 22.3157 9.54784 25.0204 5.95841C26.6677 3.77237 27.3263 2.43739 27.1202 1.86668C26.9241 1.32267 25.7125 1.46618 25.7125 1.46618L21.6839 1.48955C21.6839 1.48955 21.3856 1.4495 21.1627 1.58133C20.9465 1.71149 20.8075 2.01186 20.8075 2.01186C20.8075 2.01186 20.169 3.70395 19.3177 5.1424C17.5229 8.17782 16.804 8.33801 16.5107 8.14945C15.8287 7.71057 15.9996 6.38393 15.9996 5.44277C15.9996 2.5008 16.447 1.27428 15.1265 0.957222C14.6874 0.852092 14.3657 0.782006 13.2446 0.770325C11.8067 0.755306 10.5884 0.775331 9.89967 1.11075C9.4405 1.33436 9.08691 1.83331 9.30309 1.86167C9.56954 1.89672 10.1728 2.02354 10.4929 2.45741C10.9068 3.01644 10.8917 4.27466 10.8917 4.27466C10.8917 4.27466 11.1297 7.73727 10.3371 8.1678C9.79242 8.46317 9.04669 7.86076 7.4463 5.10568C6.62683 3.69561 6.00679 2.13535 6.00679 2.13535C6.00679 2.13535 5.8878 1.84499 5.67498 1.68979C5.4169 1.50123 5.05493 1.44115 5.05493 1.44115L1.22405 1.46452C1.22405 1.46452 0.649253 1.4812 0.438102 1.72984C0.250412 1.95179 0.423019 2.40902 0.423019 2.40902C0.423019 2.40902 3.4227 9.39599 6.81787 12.9187C9.93319 16.1477 13.4691 15.9357 13.4691 15.9357H15.0712C15.0712 15.9357 15.5555 15.8823 15.8018 15.617C16.0297 15.3734 16.0214 14.9161 16.0214 14.9161C16.0214 14.9161 15.9895 12.7752 16.9883 12.4598C17.972 12.1494 19.2356 14.529 20.5745 15.4451C21.5867 16.1377 22.3559 15.9858 22.3559 15.9858L25.9371 15.9357C25.9371 15.9357 27.8106 15.8206 26.9224 14.3538Z" fill="#232323"/>
</svg>
